<?xml version="1.0" encoding="UTF-8" standalone="no"?>
<svg
   xmlns:dc="http://purl.org/dc/elements/1.1/"
   xmlns:cc="http://creativecommons.org/ns#"
   xmlns:rdf="http://www.w3.org/1999/02/22-rdf-syntax-ns#"
   xmlns:svg="http://www.w3.org/2000/svg"
   xmlns="http://www.w3.org/2000/svg"
   xmlns:sodipodi="http://sodipodi.sourceforge.net/DTD/sodipodi-0.dtd"
   xmlns:inkscape="http://www.inkscape.org/namespaces/inkscape"
   viewBox="0 0 1024 1024"
   id="logo-terra"
   version="1.1"
   sodipodi:docname="terra.svg"
   inkscape:version="0.92.4 (5da689c313, 2019-01-14)"
   width="1024"
   height="1024">
  <metadata
     id="metadata3774">
    <rdf:RDF>
      <cc:Work
         rdf:about="">
        <dc:format>image/svg+xml</dc:format>
        <dc:type
           rdf:resource="http://purl.org/dc/dcmitype/StillImage" />
        <dc:title></dc:title>
      </cc:Work>
    </rdf:RDF>
  </metadata>
  <defs
     id="defs3772" />
  <sodipodi:namedview
     pagecolor="#ffffff"
     bordercolor="#666666"
     borderopacity="1"
     objecttolerance="10"
     gridtolerance="10"
     guidetolerance="10"
     inkscape:pageopacity="0"
     inkscape:pageshadow="2"
     inkscape:window-width="1255"
     inkscape:window-height="781"
     id="namedview3770"
     showgrid="false"
     inkscape:zoom="0.30675956"
     inkscape:cx="313.60618"
     inkscape:cy="404.91173"
     inkscape:window-x="371"
     inkscape:window-y="91"
     inkscape:window-maximized="0"
     inkscape:current-layer="layer4"
     inkscape:pagecheckerboard="true" />
  <g
     inkscape:groupmode="layer"
     id="layer3"
     inkscape:label="background"
     style="display:inline"
     transform="translate(0,1007)">
    <rect
       style="fill:#ff7212;fill-opacity:1;stroke-width:55.08984756"
       id="rect4643"
       width="1024"
       height="1024"
       x="0"
       y="-1007" />
  </g>
  <g
     inkscape:groupmode="layer"
     id="layer4"
     inkscape:label="logo"
     style="display:inline"
     transform="translate(0,1007)">
    <g
       transform="matrix(43.744612,0,0,-43.492243,-1373.2463,432.16687)"
       id="g3767">
      <path
         d="m 49.567,25.308 c -0.354,0.749 -0.785,1.329 -1.26,1.568 -0.276,0.147 -0.636,0.268 -1.058,0.364 a 12.84,12.84 0 0 0 0.675,-1.983 c 0.576,0 1.104,0.047 1.643,0.05"
         id="path3745"
         inkscape:connector-curvature="0"
         style="fill:#ba7caf" />
      <path
         d="m 46.223,17.401 c -0.927,-0.554 -2.54,-1.206 -4.367,-1.769 a 37.15,37.15 0 0 0 -1.7,-0.48 9.559,9.559 0 0 1 1.96,0.082 c 2.172,0.295 4.592,1.192 6.253,2.191 a 29.07,29.07 0 0 0 -2.146,-0.024"
         id="path3747"
         inkscape:connector-curvature="0"
         style="fill:#00787f;fill-opacity:1" />
      <path
         d="m 50.111,18.865 c 0.812,1.12 0.42,4.408 -0.544,6.442 a 36.81,36.81 0 0 1 -1.646,-0.051 c 0.517,-2.044 0.59,-4.45 -0.693,-6.099 -0.027,-0.518 -0.108,-0.925 -0.25,-1.145 -0.117,-0.178 -0.38,-0.385 -0.756,-0.61 a 29.069,29.069 0 0 1 2.146,0.024 c 0.788,0.475 1.405,0.971 1.743,1.44"
         id="path3749"
         inkscape:connector-curvature="0"
         style="fill:#e2001a" />
      <path
         d="m 40.727,18.024 a 39.97,39.97 0 0 0 -4.136,0.021 c 0.432,-1.066 0.991,-1.94 1.642,-2.356 0.516,-0.315 1.178,-0.483 1.924,-0.538 0.577,0.15 1.147,0.31 1.699,0.481 a 13.007,13.007 0 0 0 -1.129,2.392"
         id="path3751"
         inkscape:connector-curvature="0"
         style="fill:#59b895;fill-opacity:1" />
      <path
         d="m 42.062,18.104 a 21.46,21.46 0 0 1 -1.334,-0.08 c 0.304,-0.85 0.688,-1.678 1.127,-2.392 1.828,0.564 3.44,1.216 4.368,1.77"
         id="path3753"
         inkscape:connector-curvature="0"
         style="fill:#0099a1;fill-opacity:1" />
      <path
         d="m 46.978,18.013 c 0.142,0.22 0.223,0.627 0.25,1.145 -0.01,-0.011 -0.019,-0.026 -0.029,-0.037 -0.313,-0.392 -2.44,-0.814 -5.138,-1.017 l 0.067,-0.064 c 0.402,-0.347 2.126,-0.59 4.094,-0.638 0.375,0.225 0.64,0.432 0.756,0.61"
         id="path3755"
         inkscape:connector-curvature="0"
         style="fill:#c00318" />
      <path
         d="m 47.249,27.24 c -1.857,0.418 -4.926,0.331 -7.407,-0.23 -0.879,-0.2 -1.683,-0.458 -2.336,-0.774 0.767,0.056 1.558,0.08 2.337,0.072 2.222,-0.022 4.343,-0.3 5.485,-0.807 0.178,-0.079 0.348,-0.225 0.505,-0.42 0.683,0.08 1.306,0.117 2.092,0.176 a 12.97,12.97 0 0 1 -0.676,1.982"
         id="path3757"
         inkscape:connector-curvature="0"
         style="fill:#a64d94" />
      <path
         d="m 40.18,22.979 a 23.65,23.65 0 0 0 -0.337,3.33 28.81,28.81 0 0 1 -2.337,-0.072 c -0.605,-0.295 -1.082,-0.64 -1.36,-1.032 -0.862,-1.214 -0.551,-4.698 0.445,-7.16 a 40.25,40.25 0 0 1 4.137,-0.02 c -0.676,1.883 -0.954,3.872 -0.548,4.954"
         id="path3759"
         inkscape:connector-curvature="0"
         style="fill:#dfdb00" />
      <path
         d="m 45.833,25.081 a 1.415,1.415 0 0 1 -0.505,0.42 c -1.142,0.506 -3.263,0.785 -5.485,0.808 0.024,-0.985 0.135,-2.165 0.337,-3.33 0.066,0.18 0.155,0.337 0.261,0.461 0.685,0.792 2.883,1.351 5.392,1.641"
         id="path3761"
         inkscape:connector-curvature="0"
         style="fill:#b1c800" />
      <path
         d="m 40.18,22.979 c -0.406,-1.082 -0.128,-3.071 0.548,-4.954 0.431,0.018 0.875,0.046 1.333,0.079 -0.908,0.856 -1.53,2.846 -1.881,4.875"
         id="path3763"
         inkscape:connector-curvature="0"
         style="fill:#67af23" />
      <path
         d="m 48.15,24.251 c -0.058,0.365 -0.136,0.656 -0.225,1.006 -0.704,-0.039 -1.507,-0.1 -2.095,-0.177 0.287,-0.357 0.535,-0.881 0.74,-1.49 0.472,-1.391 0.717,-3.214 0.655,-4.432 0.992,1.26 1.086,2.846 1.052,4.09"
         id="path3765"
         inkscape:connector-curvature="0"
         style="fill:#af0917;fill-rule:evenodd" />
    </g>
  </g>
</svg>
