<?xml version="1.0" standalone="no"?>
<!DOCTYPE svg PUBLIC "-//W3C//DTD SVG 20010904//EN"
 "http://www.w3.org/TR/2001/REC-SVG-20010904/DTD/svg10.dtd">
<svg version="1.0" xmlns="http://www.w3.org/2000/svg"
 width="700.000000pt" height="700.000000pt" viewBox="0 0 700.000000 700.000000"
 preserveAspectRatio="xMidYMid meet">
<metadata>
Created by potrace 1.11, written by Peter Selinger 2001-2013
</metadata>
<g transform="translate(0.000000,700.000000) scale(0.100000,-0.100000)"
fill="#000000" stroke="none">
<path d="M3545 6889 c-195 -28 -293 -50 -411 -95 -193 -72 -361 -180 -492
-318 l-72 -76 -92 0 c-155 0 -270 -19 -426 -70 -432 -142 -750 -444 -842 -800
-17 -63 -19 -77 -26 -148 -11 -106 33 -183 121 -212 41 -13 121 -6 153 14 7 4
15 6 18 3 2 -2 -2 -46 -10 -98 -34 -209 -38 -455 -12 -664 4 -27 9 -55 20
-110 37 -181 118 -379 221 -540 32 -50 124 -167 179 -229 22 -25 25 -35 19
-60 -4 -17 -8 -78 -8 -136 0 -97 3 -110 32 -171 56 -114 192 -241 314 -292 56
-23 145 -42 219 -46 38 -2 117 -254 144 -463 12 -95 14 -363 2 -413 -2 -11 -5
-28 -5 -37 -1 -10 -20 -30 -43 -44 -105 -67 -180 -190 -193 -319 -7 -63 -12
-74 -46 -112 -51 -56 -129 -175 -159 -245 -22 -49 -32 -60 -76 -81 -186 -92
-304 -216 -306 -324 0 -32 7 -56 29 -91 32 -52 73 -77 144 -87 202 -29 286
-56 509 -163 134 -63 241 -111 465 -206 290 -123 492 -167 740 -161 147 4 177
8 330 41 212 47 460 141 750 285 171 85 208 114 225 179 16 59 1 121 -60 255
-25 57 -105 194 -119 205 -3 3 -19 23 -36 45 -16 22 -71 83 -122 135 l-92 95
0 80 c0 111 -30 192 -95 257 -30 30 -36 43 -37 84 -1 52 8 177 16 213 28 128
39 159 88 274 9 20 23 30 52 38 112 29 224 110 285 206 28 43 34 47 73 50 173
9 256 28 317 72 46 34 65 57 91 111 18 38 21 57 16 121 -7 109 -38 160 -148
245 -62 48 -70 65 -41 86 38 29 93 104 113 157 48 128 20 260 -82 383 l-39 47
55 35 c156 101 243 264 253 481 3 79 10 120 23 146 58 115 33 254 -64 352 -29
29 -65 61 -81 72 l-29 21 40 41 c73 74 93 108 100 162 3 28 9 49 12 47 12 -8
67 22 101 56 62 61 84 120 85 223 0 100 -14 154 -73 272 -38 77 -128 203 -211
292 -50 55 -50 55 -28 70 81 55 108 192 58 289 -30 59 -92 125 -171 181 -70
50 -75 53 -200 116 -234 118 -588 224 -865 259 -27 4 -66 9 -85 12 -62 10
-453 12 -515 3z"/>
</g>
</svg>
